<svg xmlns="http://www.w3.org/2000/svg" viewBox="0 0 1440 320"><path fill="#16213e" fill-opacity="1" d="M0,192L12,192C24,192,48,192,72,202.7C96,213,120,235,144,202.7C168,171,192,85,216,42.7C240,0,264,0,288,48C312,96,336,192,360,197.3C384,203,408,117,432,106.7C456,96,480,160,504,160C528,160,552,96,576,96C600,96,624,160,648,197.3C672,235,696,245,720,229.3C744,213,768,171,792,165.3C816,160,840,192,864,202.7C888,213,912,203,936,170.7C960,139,984,85,1008,74.7C1032,64,1056,96,1080,96C1104,96,1128,64,1152,58.7C1176,53,1200,75,1224,106.7C1248,139,1272,181,1296,218.7C1320,256,1344,288,1368,261.3C1392,235,1416,149,1428,106.7L1440,64L1440,0L1428,0C1416,0,1392,0,1368,0C1344,0,1320,0,1296,0C1272,0,1248,0,1224,0C1200,0,1176,0,1152,0C1128,0,1104,0,1080,0C1056,0,1032,0,1008,0C984,0,960,0,936,0C912,0,888,0,864,0C840,0,816,0,792,0C768,0,744,0,720,0C696,0,672,0,648,0C624,0,600,0,576,0C552,0,528,0,504,0C480,0,456,0,432,0C408,0,384,0,360,0C336,0,312,0,288,0C264,0,240,0,216,0C192,0,168,0,144,0C120,0,96,0,72,0C48,0,24,0,12,0L0,0Z"></path></svg>